<svg xmlns="http://www.w3.org/2000/svg" xmlns:xlink="http://www.w3.org/1999/xlink" width="118" height="70.22" viewBox="0 0 118 70.22">
  <metadata><?xpacket begin="﻿" id="W5M0MpCehiHzreSzNTczkc9d"?>
<x:xmpmeta xmlns:x="adobe:ns:meta/" x:xmptk="Adobe XMP Core 5.6-c138 79.159824, 2016/09/14-01:09:01        ">
   <rdf:RDF xmlns:rdf="http://www.w3.org/1999/02/22-rdf-syntax-ns#">
      <rdf:Description rdf:about=""/>
   </rdf:RDF>
</x:xmpmeta>
                                                                                                    
                                                                                                    
                                                                                                    
                                                                                                    
                                                                                                    
                                                                                                    
                                                                                                    
                                                                                                    
                                                                                                    
                                                                                                    
                                                                                                    
                                                                                                    
                                                                                                    
                                                                                                    
                                                                                                    
                                                                                                    
                                                                                                    
                                                                                                    
                                                                                                    
                                                                                                    
                           
<?xpacket end="w"?></metadata>
<defs>
    <style>
      .cls-1 {
        fill: #909fae;
        fill-rule: evenodd;
        filter: url(#filter);
      }
    </style>
    <filter id="filter" x="1131" y="1057.78" width="118" height="70.22" filterUnits="userSpaceOnUse">
      <feOffset result="offset" dx="0.5" dy="0.866" in="SourceAlpha"/>
      <feGaussianBlur result="blur"/>
      <feFlood result="flood" flood-color="#e9e9e9"/>
      <feComposite result="composite" operator="in" in2="blur"/>
      <feBlend result="blend" in="SourceGraphic"/>
      <feGaussianBlur result="blur-2" stdDeviation="1" in="SourceAlpha"/>
      <feFlood result="flood-2" flood-color="#ddd" flood-opacity="0.75"/>
      <feComposite result="composite-2" operator="out" in2="blur-2"/>
      <feOffset result="offset-2" dx="2" dy="3.464"/>
      <feComposite result="composite-3" operator="in" in2="SourceAlpha"/>
      <feBlend result="blend-2" mode="multiply" in2="blend"/>
    </filter>
  </defs>
  <path class="cls-1" d="M1243.32,1112.14c-0.64.05-1.26,0.08-1.88,0.08a21.662,21.662,0,0,1-4.34-.44,28.664,28.664,0,0,0,9.56-28c-3.52-16.28-20.36-26-45.03-26a45.933,45.933,0,0,0-12.49,1.79,45.885,45.885,0,0,0-12.49-1.79c-1.64,0-3.24.05-4.81,0.13a0.482,0.482,0,0,1-.12,0c-20.49,1.07-30.64,8.58-35.67,15.8a27.263,27.263,0,0,0-4.16,8.99c-0.08.31-.16,0.61-0.22,0.91-0.02.06-.03,0.11-0.05,0.17,0,0.04-.01.07-0.01,0.1-0.05.21-.09,0.41-0.13,0.6s-0.05.39-.08,0.58c-0.07.37-.13,0.74-0.18,1.12-0.03.24-.05,0.47-0.07,0.71-0.05.45-.09,0.9-0.11,1.34-0.01.14-.01,0.27-0.02,0.41a28.526,28.526,0,0,0,10.16,23.14,2.231,2.231,0,0,1-.23.04c-0.54.1-1.08,0.19-1.63,0.25l-0.65.06c-0.49.04-.98,0.06-1.48,0.07-0.16,0-.32.01-0.49,0.01-0.57,0-1.15-.02-1.73-0.07a2.753,2.753,0,0,0-2.62,1.43,2.7,2.7,0,0,0,.24,2.97,11.8,11.8,0,0,0,.89,1.02c0.08,0.07.16,0.15,0.23,0.22,0.29,0.28.59,0.55,0.91,0.81,0.06,0.06.13,0.11,0.2,0.17a31.581,31.581,0,0,0,10.43,5.04c0.15,0.04.3,0.09,0.45,0.13,0.5,0.15,1.01.29,1.53,0.43,0.28,0.07.56,0.14,0.85,0.21,0.37,0.1.74,0.18,1.12,0.27,1.56,0.36,3.18.66,4.85,0.92,0.15,0.02.3,0.05,0.45,0.07,0.51,0.08,1.03.14,1.55,0.21l0.46,0.06c0.07,0.01.14,0.01,0.22,0.02,1.38,0.16,2.79.29,4.22,0.38,0.3,0.02.6,0.04,0.9,0.05,1.24,0.06,2.49.11,3.75,0.11,0.13,0,.27.02,0.41,0.02,1.12,0,2.23-.03,3.33-0.08a63.114,63.114,0,0,0,19.8-3.84,65.266,65.266,0,0,0,23.06,3.91c15.12,0,28.89-4.16,33.5-10.13a2.74,2.74,0,0,0,.24-2.97A2.772,2.772,0,0,0,1243.32,1112.14Zm-77.24,9.06c-1.1,0-2.19-.03-3.26-0.08-0.4-.02-0.79-0.04-1.19-0.07-0.53-.03-1.06-0.07-1.59-0.11a58.716,58.716,0,0,1-17.28-3.89,27.227,27.227,0,0,0,5.94-2.08,2.729,2.729,0,0,0-.06-4.95c-7.09-3.22-11.8-11.09-12.15-19.34v-0.06c-0.02-.57-0.02-1.14,0-1.72,0.01-.19.02-0.39,0.04-0.58,0.02-.41.05-0.82,0.1-1.23,0.03-.29.08-0.58,0.12-0.86,0.07-.42.13-0.84,0.22-1.25a22.741,22.741,0,0,1,5.49-10.49,0.462,0.462,0,0,0,.07-0.07q0.36-.39.75-0.78l0.1-.1c0.26-.26.53-0.51,0.81-0.77a1.1,1.1,0,0,0,.11-0.1c0.29-.26.59-0.51,0.9-0.76a0.9,0.9,0,0,0,.1-0.09c0.32-.26.66-0.51,1-0.77a0.555,0.555,0,0,0,.08-0.06c0.36-.26.72-0.51,1.1-0.77a0.435,0.435,0,0,0,.07-0.04c0.39-.26.8-0.51,1.21-0.76a0.147,0.147,0,0,0,.04-0.02,42.077,42.077,0,0,1,13.62-4.9h0.04c0.69-.13,1.39-0.26,2.11-0.37a1.114,1.114,0,0,1,.17-0.02c0.68-.11,1.37-0.2,2.08-0.29,0.13-.01.26-0.03,0.39-0.04,0.64-.08,1.29-0.14,1.96-0.2l0.73-.06,1.72-.12c1.61-.09,3.28-0.14,5.03-0.14,0.93,0,2.22.04,3.75,0.18-0.08.05-.16,0.12-0.25,0.17-0.7.45-1.39,0.95-2.07,1.48-0.16.11-.31,0.23-0.46,0.35-0.33.26-.65,0.54-0.98,0.83l-0.48.45a26.044,26.044,0,0,0-2.94,3.22c-0.16.21-.32,0.41-0.47,0.62-0.26.36-.51,0.72-0.76,1.09-0.16.24-.31,0.5-0.46,0.75-0.39.64-.77,1.31-1.12,2.01-0.15.31-.32,0.61-0.46,0.93-0.19.4-.36,0.81-0.52,1.23-0.15.35-.28,0.7-0.42,1.06-0.15.42-.3,0.85-0.44,1.3-0.14.41-.25,0.83-0.37,1.26-0.17.63-.34,1.28-0.48,1.95-0.13.58-.25,1.16-0.35,1.77-0.08.46-.14,0.94-0.2,1.42q-0.105.78-.18,1.59c-0.05.49-.09,0.98-0.12,1.49-0.04.67-.06,1.36-0.08,2.05-0.01.36-.04,0.69-0.04,1.06,0,0.65.04,1.29,0.07,1.92,0,0.13,0,.25.01,0.37,0.03,0.53.08,1.05,0.13,1.56,0.02,0.28.05,0.56,0.08,0.83,0.06,0.48.13,0.95,0.2,1.42,0.05,0.3.1,0.59,0.16,0.88,0.08,0.46.17,0.91,0.28,1.35,0.06,0.29.14,0.58,0.21,0.87,0.12,0.44.23,0.87,0.36,1.3,0.08,0.27.18,0.54,0.27,0.82,0.28,0.83.59,1.65,0.94,2.44,0.1,0.22.18,0.45,0.28,0.66,0.17,0.36.35,0.71,0.53,1.06,0.16,0.3.31,0.6,0.48,0.9,0.18,0.33.38,0.65,0.58,0.98q0.27,0.45.57,0.9c0.2,0.3.41,0.6,0.62,0.9s0.45,0.61.69,0.91c0.21,0.27.42,0.54,0.65,0.81,0.28,0.34.57,0.66,0.87,0.98,0.2,0.22.39,0.44,0.6,0.66,0.51,0.52,1.03,1.02,1.58,1.51,0.14,0.13.3,0.26,0.45,0.38,0.43,0.38.88,0.75,1.34,1.1,0.21,0.17.43,0.32,0.65,0.48,0.42,0.32.85,0.62,1.3,0.92,0.23,0.16.46,0.31,0.69,0.46,0.22,0.13.43,0.28,0.65,0.42A64.557,64.557,0,0,1,1166.08,1121.2Zm26.73-20.11v4.01a0.6,0.6,0,0,1-.61.6h-4.43a0.6,0.6,0,0,1-.6-0.6v-4a10.29,10.29,0,0,1-2.19-.9l-2.91,2.91a0.622,0.622,0,0,1-.86,0l-3.13-3.14a0.592,0.592,0,0,1,0-.85l2.93-2.93a10.211,10.211,0,0,1-.87-2.1h-4.24a0.6,0.6,0,0,1-.6-0.61v-4.43a0.6,0.6,0,0,1,.6-0.6h4.25a9.728,9.728,0,0,1,.83-2.03l-3.07-3.07a0.592,0.592,0,0,1,0-.85l3.13-3.14a0.61,0.61,0,0,1,.85,0l3.04,3.03a10.82,10.82,0,0,1,2.24-.94v-4.14a0.6,0.6,0,0,1,.6-0.61h4.43a0.606,0.606,0,0,1,.61.61v4.16a10.126,10.126,0,0,1,2.07.85l2.86-2.86a0.6,0.6,0,0,1,.86,0l3.13,3.13a0.592,0.592,0,0,1,0,.85l-2.85,2.85a10.261,10.261,0,0,1,.9,2.16h3.93a0.6,0.6,0,0,1,.6.6v4.44a0.6,0.6,0,0,1-.6.6h-3.92a10.434,10.434,0,0,1-.94,2.23l2.71,2.71a0.61,0.61,0,0,1,0,.85l-3.13,3.13a0.6,0.6,0,0,1-.86,0l-2.75-2.75A9.564,9.564,0,0,1,1192.81,1101.09Zm19.39,20.11a64.616,64.616,0,0,1-15.91-1.89c0.26-.16.5-0.33,0.75-0.49l0.51-.33q0.78-.525,1.53-1.08c0.15-.11.3-0.22,0.44-0.33,0.59-.45,1.16-0.92,1.7-1.4,0.04-.03.07-0.06,0.1-0.08,0.59-.52,1.14-1.06,1.68-1.61,0.11-.12.22-0.25,0.33-0.37,0.4-.42.78-0.85,1.15-1.29,0.16-.19.32-0.39,0.47-0.59,0.31-.38.6-0.78,0.89-1.18,0.15-.21.31-0.43,0.46-0.66q0.4-.6.78-1.23c0.13-.22.26-0.43,0.39-0.66,0.27-.48.53-0.97,0.77-1.47,0.08-.16.17-0.32,0.24-0.48,0.32-.68.62-1.37,0.88-2.07,0.04-.1.07-0.19,0.1-0.29,0.23-.61.44-1.23,0.62-1.86,0.07-.22.12-0.44,0.18-0.65,0.15-.53.28-1.06,0.4-1.6,0.06-.25.11-0.5,0.16-0.74,0.1-.54.2-1.09,0.28-1.64,0.03-.24.07-0.48,0.1-0.73,0.08-.61.14-1.24,0.19-1.87,0.01-.19.03-0.36,0.05-0.55,0.05-.83.08-1.67,0.08-2.53,0-1.18-.05-2.3-0.13-3.4-0.01-.27-0.04-0.53-0.06-0.8-0.07-.85-0.17-1.67-0.28-2.47-0.04-.24-0.07-0.48-0.1-0.71-0.16-.99-0.35-1.95-0.57-2.87-0.02-.09-0.05-0.18-0.08-0.28-0.2-.81-0.43-1.59-0.67-2.34-0.08-.24-0.17-0.48-0.25-0.71-0.23-.65-0.47-1.27-0.73-1.87-0.08-.18-0.15-0.37-0.23-0.55-0.34-.74-0.7-1.46-1.08-2.14a4.637,4.637,0,0,0-.26-0.44c-0.31-.54-0.63-1.06-0.97-1.55-0.13-.2-0.27-0.4-0.4-0.59-0.34-.48-0.7-0.94-1.06-1.38-0.1-.13-0.2-0.27-0.3-0.39-0.46-.54-0.94-1.06-1.42-1.55-0.15-.14-0.29-0.28-0.44-0.42q-0.555-.525-1.11-1.02c-0.18-.15-0.35-0.3-0.52-0.45-0.43-.35-0.86-0.68-1.3-1.01-0.1-.07-0.2-0.15-0.3-0.22-0.46-.33-0.92-0.63-1.38-0.93,1.53-.14,2.82-0.18,3.75-0.18,31.58,0,38.27,15.16,39.68,21.68,2.18,10.1-2.94,21.11-11.67,25.08a2.736,2.736,0,0,0-.06,4.95,27.139,27.139,0,0,0,5.99,2.09C1230.12,1119.41,1221.75,1121.2,1212.2,1121.2Zm-22.23-36.23a6.3,6.3,0,1,0,6.31,6.3A6.3,6.3,0,0,0,1189.97,1084.97Zm0.04,10.22a3.91,3.91,0,1,1,3.91-3.91A3.909,3.909,0,0,1,1190.01,1095.19Z" transform="translate(-1131 -1057.78)"/>
</svg>
