<svg xmlns="http://www.w3.org/2000/svg" width="22.16" height="19.719" viewBox="0 0 22.16 19.719">
  <metadata><?xpacket begin="﻿" id="W5M0MpCehiHzreSzNTczkc9d"?>
<x:xmpmeta xmlns:x="adobe:ns:meta/" x:xmptk="Adobe XMP Core 5.6-c138 79.159824, 2016/09/14-01:09:01        ">
   <rdf:RDF xmlns:rdf="http://www.w3.org/1999/02/22-rdf-syntax-ns#">
      <rdf:Description rdf:about=""/>
   </rdf:RDF>
</x:xmpmeta>
                                                                                                    
                                                                                                    
                                                                                                    
                                                                                                    
                                                                                                    
                                                                                                    
                                                                                                    
                                                                                                    
                                                                                                    
                                                                                                    
                                                                                                    
                                                                                                    
                                                                                                    
                                                                                                    
                                                                                                    
                                                                                                    
                                                                                                    
                                                                                                    
                                                                                                    
                                                                                                    
                           
<?xpacket end="w"?></metadata>
<defs>
    <style>
      .cls-1 {
        fill: #676f75;
        fill-rule: evenodd;
      }
    </style>
  </defs>
  <path class="cls-1" d="M1242.28,44.967v-2a2.011,2.011,0,0,1,1.61-1.607s2.38-.868,4.24-1.679c0.97-.419,1.17-0.671,2.14-1.1a3,3,0,0,0,.07-0.8h0.76s0.17,0.1,0-1.071c0,0-.93-0.246-0.97-2.113,0,0-.7.234-0.74-0.9-0.03-.767-0.62-1.433.23-1.983l-0.43-1.172s-0.87-4.733,1.63-4.039c-1.06-1.259,5.97-2.518,6.42,1.477a12.17,12.17,0,0,1,0,3.633s1.03-.119.34,1.853c0,0-.37,1.419-0.95,1.1,0,0,.09,1.8-0.82,2.1,0,0,.07.955,0.07,1.02l0.87,0.13a1.613,1.613,0,0,0,.02.869,8.075,8.075,0,0,0,2.26,1.021c2.36,0.607,5.16,1.65,5.16,2.562a15.519,15.519,0,0,1,.24,2.692h-22.15Z" transform="translate(-1242.28 -25.25)"/>
</svg>
