<svg xmlns="http://www.w3.org/2000/svg" xmlns:xlink="http://www.w3.org/1999/xlink" width="80.188" height="86.41" viewBox="0 0 80.188 86.41">
  <metadata><?xpacket begin="﻿" id="W5M0MpCehiHzreSzNTczkc9d"?>
<x:xmpmeta xmlns:x="adobe:ns:meta/" x:xmptk="Adobe XMP Core 5.6-c138 79.159824, 2016/09/14-01:09:01        ">
   <rdf:RDF xmlns:rdf="http://www.w3.org/1999/02/22-rdf-syntax-ns#">
      <rdf:Description rdf:about=""/>
   </rdf:RDF>
</x:xmpmeta>
                                                                                                    
                                                                                                    
                                                                                                    
                                                                                                    
                                                                                                    
                                                                                                    
                                                                                                    
                                                                                                    
                                                                                                    
                                                                                                    
                                                                                                    
                                                                                                    
                                                                                                    
                                                                                                    
                                                                                                    
                                                                                                    
                                                                                                    
                                                                                                    
                                                                                                    
                                                                                                    
                           
<?xpacket end="w"?></metadata>
<defs>
    <style>
      .cls-1 {
        fill: #fff;
        fill-rule: evenodd;
        filter: url(#filter);
      }
    </style>
    <filter id="filter" x="580.906" y="1937" width="80.188" height="86.41" filterUnits="userSpaceOnUse">
      <feOffset result="offset" dy="-1" in="SourceAlpha"/>
      <feGaussianBlur result="blur"/>
      <feFlood result="flood" flood-opacity="0.42"/>
      <feComposite result="composite" operator="in" in2="blur"/>
      <feBlend result="blend" in="SourceGraphic"/>
    </filter>
  </defs>
  <path class="cls-1" d="M661.1,2017.72c-0.859-5.22-2.044-8.49-3.023-17.48,0.066-8.71-11.383-3.49-19.222-9.35-2.128-2.89-9.3-6.84-9.3-6.84a16.651,16.651,0,0,1,1.957,3.95c0.093,0.25-.623,1.26-0.538,1.52,3.411,10.47-.855,24.82-6.632,32.82,0.83-8.88-1.957-24.07-3.08-28.64,0.8-.31.783-1.35,1.227-1.1,1.33,1.33,4.158,4.68,4.158,4.68l-5.834-8.68,7.209-3.75h0l1.529-.8a2.341,2.341,0,0,1-1.169-.27c-0.007-.38-0.2-2.8.5-3.82,1.99-1.78,2.167-7.21,3.232-10.71,2.73-.33,5.3-7.89,1.514-8.86,0-.84.488-2.47,0.429-3.3-0.263-3.78-.061-7.83-1.413-10.87-3.441-4.94-4.6-7.13-12.517-7.6-4.226,0-11.57,2.54-11.57,6.21-1.736,0-2.362.86-2.988,2.94a27.709,27.709,0,0,0-.915,9.58c-0.073.84,0.593,2.83,0.593,3.69-3.9,1.91-.028,8.64,2.633,8.66,1.065,3.5,2.189,8.83,4.017,10.3,0.924,0.88.389,3.04,0.268,3.48-0.694.2-.947,0.3-1.673,0.57,0,0-5.256,3.4-7.385,6.02-8.814,5.1-19.062,2.24-19.7,10.17-0.451,5.65-1.677,13.08-2.511,17.48C579.908,2025.81,662.336,2024.71,661.1,2017.72Zm-44.1,4.62c-4.938-7.07-10.393-18.35-7.279-32.64,0.128-.37-0.365-0.59-0.548-1.71a41.808,41.808,0,0,1,1.962-4.12l1.521,0.84a9.565,9.565,0,0,0,.942.53l5.925,3.31-5.172,8.82a30.313,30.313,0,0,1,4.043-4.74c0.427-.18.441,1,1.171,1.12C618.466,1999.51,616.139,2010.51,617,2022.34Z" transform="translate(-580.906 -1937)"/>
</svg>
