<svg 
 xmlns="http://www.w3.org/2000/svg"
 xmlns:xlink="http://www.w3.org/1999/xlink"
 width="43px" height="43px">
<path fill-rule="evenodd"  fill="rgb(255, 255, 255)"
 d="M39.752,25.010 L37.953,25.010 L40.200,22.202 L35.541,22.202 L35.541,20.798 L40.200,20.798 L37.953,17.990 L39.752,17.990 L42.560,21.499 L39.752,25.010 ZM28.753,29.204 L27.726,29.204 L27.726,32.093 L27.420,32.093 L26.580,32.093 L19.498,32.093 L18.566,32.093 L18.351,32.093 L18.351,29.204 L17.325,29.204 L17.325,27.275 L16.299,27.275 L16.299,25.352 L15.273,25.352 L15.273,23.550 L14.247,23.550 L14.247,22.593 L13.221,22.593 L13.221,19.583 L13.315,19.583 L14.368,19.583 L16.420,19.583 L16.420,20.609 L17.325,20.609 L17.325,11.932 L18.351,11.932 L18.351,10.906 L20.222,10.906 L20.222,11.932 L21.248,11.932 L21.248,15.739 L23.099,15.739 L23.099,16.765 L23.974,16.765 L24.125,16.765 L25.966,16.765 L25.966,17.791 L26.871,17.791 L26.992,17.791 L27.847,17.791 L27.847,18.627 L28.752,18.627 L28.753,18.627 L28.753,19.558 L29.779,19.558 L29.779,26.313 L28.753,26.313 L28.753,29.204 ZM28.632,19.679 L27.727,19.679 L27.727,18.747 L26.992,18.747 L26.992,21.768 L25.845,21.768 L25.845,17.912 L24.125,17.912 L24.125,20.621 L22.978,20.621 L22.978,16.885 L21.248,16.885 L21.248,20.621 L20.101,20.621 L20.101,12.053 L18.472,12.053 L18.472,24.366 L17.325,24.366 L17.325,21.686 L16.299,21.686 L16.299,20.730 L14.367,20.730 L14.367,22.472 L15.394,22.472 L15.394,23.429 L16.420,23.429 L16.420,25.231 L17.446,25.231 L17.446,27.159 L18.472,27.159 L18.472,29.082 L19.498,29.082 L19.498,30.946 L26.579,30.946 L26.579,29.082 L27.605,29.082 L27.605,26.193 L28.632,26.193 L28.632,19.679 ZM22.203,7.460 L20.797,7.460 L20.797,2.799 L17.990,5.046 L17.990,3.249 L21.500,0.440 L25.011,3.249 L25.011,5.046 L22.203,2.800 L22.203,7.460 ZM5.046,25.010 L3.247,25.010 L0.439,21.501 L3.247,17.990 L5.046,17.990 L2.800,20.798 L7.459,20.798 L7.459,22.202 L2.800,22.202 L5.046,25.010 ZM20.797,35.540 L22.203,35.540 L22.203,40.201 L25.011,37.953 L25.011,39.752 L21.500,42.559 L17.990,39.752 L17.990,37.953 L20.797,40.201 L20.797,35.540 Z"/>
</svg>