<svg xmlns="http://www.w3.org/2000/svg" width="42.12" height="42.125" viewBox="0 0 42.12 42.125">
  <metadata><?xpacket begin="﻿" id="W5M0MpCehiHzreSzNTczkc9d"?>
<x:xmpmeta xmlns:x="adobe:ns:meta/" x:xmptk="Adobe XMP Core 5.6-c138 79.159824, 2016/09/14-01:09:01        ">
   <rdf:RDF xmlns:rdf="http://www.w3.org/1999/02/22-rdf-syntax-ns#">
      <rdf:Description rdf:about=""/>
   </rdf:RDF>
</x:xmpmeta>
                                                                                                    
                                                                                                    
                                                                                                    
                                                                                                    
                                                                                                    
                                                                                                    
                                                                                                    
                                                                                                    
                                                                                                    
                                                                                                    
                                                                                                    
                                                                                                    
                                                                                                    
                                                                                                    
                                                                                                    
                                                                                                    
                                                                                                    
                                                                                                    
                                                                                                    
                                                                                                    
                           
<?xpacket end="w"?></metadata>
<defs>
    <style>
      .cls-1 {
        fill: #5e6367;
        fill-rule: evenodd;
      }
    </style>
  </defs>
  <path class="cls-1" d="M1447.25,692.01h1.8l-2.25-2.808h4.66v-1.4h-4.66l2.25-2.808h-1.8l-2.81,3.511Zm14.74-21.761v1.8l2.81-2.247v4.661h1.4V669.8l2.81,2.246v-1.8l-3.51-2.809Zm21.76,14.741h-1.8l2.25,2.808h-4.66v1.4h4.66l-2.25,2.808h1.8l2.81-3.511Zm-14.74,21.762v-1.8l-2.81,2.248V702.54h-1.4V707.2l-2.81-2.248v1.8l3.51,2.807Zm3.74-21.125h-0.9v-0.836h-1.88v-1.026h-2.87v-1.026h-1.85v-3.807h-1.03v-1.026h-1.87v1.026h-1.02v8.677h-0.91v-1.026h-3.2v3.01h1.03v0.957h1.02v1.8h1.03v1.923h1.03V696.2h1.02v2.889h9.38V696.2h1.02v-2.891h1.03v-6.755h-1.03v-0.931h0Zm-0.12,7.566h-1.02v2.889h-1.03v1.864h-7.08v-1.864h-1.03v-1.923h-1.02v-1.928h-1.03v-1.8h-1.03v-0.957h-1.02V687.73h1.93v0.956h1.02v2.68h1.15V679.053h1.63v8.568h1.15v-3.736h1.73v3.736h1.15v-2.709h1.72v3.856h1.14v-3.021h0.74v0.932h0.9v6.514h0Z" transform="translate(-1444.44 -667.438)"/>
</svg>
