<svg xmlns="http://www.w3.org/2000/svg" width="75.594" height="57.28" viewBox="0 0 75.594 57.28">
  <metadata><?xpacket begin="﻿" id="W5M0MpCehiHzreSzNTczkc9d"?>
<x:xmpmeta xmlns:x="adobe:ns:meta/" x:xmptk="Adobe XMP Core 5.6-c138 79.159824, 2016/09/14-01:09:01        ">
   <rdf:RDF xmlns:rdf="http://www.w3.org/1999/02/22-rdf-syntax-ns#">
      <rdf:Description rdf:about=""/>
   </rdf:RDF>
</x:xmpmeta>
                                                                                                    
                                                                                                    
                                                                                                    
                                                                                                    
                                                                                                    
                                                                                                    
                                                                                                    
                                                                                                    
                                                                                                    
                                                                                                    
                                                                                                    
                                                                                                    
                                                                                                    
                                                                                                    
                                                                                                    
                                                                                                    
                                                                                                    
                                                                                                    
                                                                                                    
                                                                                                    
                           
<?xpacket end="w"?></metadata>
<defs>
    <style>
      .cls-1 {
        fill: #1fb5e3;
        fill-rule: evenodd;
      }
    </style>
  </defs>
  <path id="Shape_14_copy" data-name="Shape 14 copy" class="cls-1" d="M637.752,2286.9H630.74a9.654,9.654,0,0,0,.112-1.12v-5.75h6.9a13.74,13.74,0,1,0,0-27.48,13.515,13.515,0,0,0-5.888,1.36l-2.782-2.78a20.589,20.589,0,1,0-18.84,28.9v5.75a10.113,10.113,0,0,0,.113,1.12h-0.088a27.48,27.48,0,1,1,23.991-40.87,21.127,21.127,0,0,1,3.491-.35A20.61,20.61,0,0,1,637.752,2286.9ZM608.4,2269.31a3.438,3.438,0,0,1,0-4.86l9.717-9.71a3.419,3.419,0,0,1,4.857,0l9.715,9.71a3.435,3.435,0,1,1-4.856,4.86l-3.854-3.85v20.32a3.435,3.435,0,0,1-6.869,0v-20.32l-3.852,3.85A3.438,3.438,0,0,1,608.4,2269.31Z" transform="translate(-582.781 -2231.94)"/>
</svg>
