<svg xmlns="http://www.w3.org/2000/svg" width="20.09" height="19.75" viewBox="0 0 20.09 19.75">
  <metadata><?xpacket begin="﻿" id="W5M0MpCehiHzreSzNTczkc9d"?>
<x:xmpmeta xmlns:x="adobe:ns:meta/" x:xmptk="Adobe XMP Core 5.6-c138 79.159824, 2016/09/14-01:09:01        ">
   <rdf:RDF xmlns:rdf="http://www.w3.org/1999/02/22-rdf-syntax-ns#">
      <rdf:Description rdf:about=""/>
   </rdf:RDF>
</x:xmpmeta>
                                                                                                    
                                                                                                    
                                                                                                    
                                                                                                    
                                                                                                    
                                                                                                    
                                                                                                    
                                                                                                    
                                                                                                    
                                                                                                    
                                                                                                    
                                                                                                    
                                                                                                    
                                                                                                    
                                                                                                    
                                                                                                    
                                                                                                    
                                                                                                    
                                                                                                    
                                                                                                    
                           
<?xpacket end="w"?></metadata>
<defs>
    <style>
      .cls-1 {
        fill: #676f75;
        fill-rule: evenodd;
      }
    </style>
  </defs>
  <path class="cls-1" d="M1335.5,34.925a9.478,9.478,0,0,1-2.95,7.02,10.119,10.119,0,0,1-14.16.052,9.745,9.745,0,0,1,0-14.009,10.213,10.213,0,0,1,14.14-.041A9.328,9.328,0,0,1,1335.5,34.925Zm-0.98-.056a8.4,8.4,0,0,0-2.7-6.262,8.809,8.809,0,0,0-6.34-2.58l-0.98,2.018,1.07,0.217,0.84-.837,1.48,0.1,0.29,0.788-0.88.886v0.532l0.55,0.108,0.25-.413,0.98-.611-0.03.414,0.36,0.63-0.43.453,0.28,0.266-0.65.04,0.26,0.532-1.41.669,0.22,0.8h-0.44l-0.2-.788-1.03-.02-0.19.305-0.42-.2-0.69.689,0.55,0.66-0.02.729,0.58,0.433,3.39,0.384,1.07,0.758-0.13,1.881-2.33,2.333a3.074,3.074,0,0,0-.45,1.261,4.74,4.74,0,0,0-.14,1.388l-0.36.4c-0.27-.545-0.63-1.382-1.07-2.511a10.858,10.858,0,0,1-.28-1.477c-0.06-.492-0.11-0.987-0.17-1.487l-1.48-1.3,1.31-1.546-0.54-.778a7.472,7.472,0,0,1-1.63-.453,7.513,7.513,0,0,1-1.29-1.132l0.51,0.994-0.34.148-0.8-1.5,0.16-1.4-0.25-.985-0.76-.748-0.57-.138-0.49.345-0.54.138a8.785,8.785,0,0,0-2.23,5.927,8.544,8.544,0,0,0,2.67,6.351,8.847,8.847,0,0,0,6.4,2.58,8.722,8.722,0,0,0,6.39-2.629A8.627,8.627,0,0,0,1334.52,34.869Z" transform="translate(-1315.41 -25.125)"/>
</svg>
